#!OML:ASF E:\emotionWalksFemale\Project 1\Capture day 1\Session 1\Female1.ASF
:FULLY-SPECIFIED
:DEGREES
256
root 7.41426 15.1994 21.6786 -179.118 -1.42373 -182.845
lowerback 5.66754 -0.101268 -3.14092
upperback -4.18478 -0.559966 -0.53958
thorax -7.55364 -0.168431 1.26955
lowerneck -3.9662 -1.71127 -4.10491
upperneck 11.3661 -2.45726 1.20842
head 4.54931 -1.47249 1.00138
rclavicle -4.14342e-015 6.5102e-015
rhumerus -43.2364 5.38669 -89.8301
rradius 33.1088
rwrist 18.0421
rhand -6.09216 -52.019
rfingers 7.12502
rthumb 19.7438 -81.0363
lclavicle -4.14342e-015 6.5102e-015
lhumerus -37.2803 -1.37865 86.7978
lradius 35.3255
lwrist -14.524
lhand -9.70183 -36.7537
lfingers 7.12502
lthumb 16.2708 -7.41638
rfemur -26.5422 19.8285 15.038
rtibia 21.7476
rfoot -13.8664 -34.136
rtoes 22.8469
lfemur 12.7274 -13.7675 -32.7542
ltibia 14.1532
lfoot -18.9745 19.6132
ltoes -26.0682
257
root 7.43909 15.2156 21.5412 -179.077 -1.43508 -182.562
lowerback 5.53176 -0.0850858 -2.87733
upperback -4.23859 -0.509508 -0.490077
thorax -7.53469 -0.156898 1.16696
lowerneck -4.09745 -1.67603 -4.1558
upperneck 11.4655 -2.41646 1.35031
head 4.61497 -1.44852 1.06029
rclavicle -2.83889e-015 7.8023e-015
rhumerus -43.324 4.67897 -89.5279
rradius 33.112
rwrist 17.7229
rhand -5.99597 -51.7544
rfingers 7.12502
rthumb 19.8362 -80.7621
lclavicle -2.83889e-015 7.8023e-015
lhumerus -37.5705 -0.753851 86.6332
lradius 35.2146
lwrist -14.685
lhand -9.61856 -36.7973
lfingers 7.12502
lthumb 16.3509 -7.46656
rfemur -26.2375 19.564 15.7337
rtibia 22.0411
rfoot -14.0499 -34.2255
rtoes 24.5969
lfemur 13.074 -13.5584 -32.3776
ltibia 14.3932
lfoot -18.5036 19.4203
ltoes -26.0649
258
root 7.4578 15.2284 21.3961 -179.199 -1.35064 -182.198
lowerback 5.34479 -0.0771288 -2.51093
upperback -4.18939 -0.446859 -0.376769
thorax -7.37522 -0.142608 1.07144
lowerneck -4.16148 -1.63295 -4.11553
upperneck 11.4421 -2.34708 1.29039
head 4.61504 -1.41328 1.03614
rclavicle -3.47252e-015 4.52235e-015
rhumerus -43.3022 4.38003 -89.3671
rradius 33.0575
rwrist 17.0647
rhand -5.1079 -52.3723
rfingers 7.12502
rthumb 20.6897 -81.2895
lclavicle -3.47252e-015 4.52235e-015
lhumerus -37.9223 -0.156972 86.5466
lradius 35.2188
lwrist -14.4546
lhand -8.97641 -36.5003
lfingers 7.12502
lthumb 16.9691 -7.2216
rfemur -25.6913 19.3812 16.5299
rtibia 22.2365
rfoot -13.4583 -34.3335
rtoes 25.0083
lfemur 13.5689 -13.3533 -32.0556
ltibia 14.8737
lfoot -17.8521 19.4538
ltoes -26.2407
259
root 7.47989 15.241 21.2591 -179.258 -1.31154 -181.853
lowerback 5.23359 -0.0953197 -2.26158
upperback -4.18959 -0.4344 -0.225643
thorax -7.31053 -0.144953 1.08776
lowerneck -4.20612 -1.62646 -4.01411
upperneck 11.4313 -2.32248 1.10955
head 4.61367 -1.40468 0.957309
rclavicle 9.93923e-017 2.48481e-016
rhumerus -43.2471 4.02572 -89.0839
rradius 32.8092
rwrist 17.1416
rhand -4.40365 -52.8047
rfingers 7.12502
rthumb 21.3663 -81.6467
lclavicle 9.93923e-017 2.48481e-016
lhumerus -38.2397 0.492533 86.4576
lradius 34.9968
lwrist -14.3748
lhand -8.79428 -36.3523
lfingers 7.12502
lthumb 17.1445 -7.08868
rfemur -25.1777 19.0586 17.291
rtibia 22.3714
rfoot -12.7052 -34.097
rtoes 24.1237
lfemur 13.7805 -13.0671 -31.6398
ltibia 15.5811
lfoot -17.1979 19.2412
ltoes -26.1688
260
root 7.50624 15.2575 21.1222 -179.284 -1.39833 -181.564
lowerback 5.12361 -0.147292 -2.09099
upperback -4.21242 -0.47866 -0.0909469
thorax -7.26889 -0.172153 1.13757
lowerneck -4.24949 -1.61135 -4.07425
upperneck 11.4533 -2.2927 1.08619
head 4.63045 -1.39405 0.961485
rclavicle -4.78326e-016 -2.08724e-015
rhumerus -43.094 3.54738 -88.6652
rradius 32.35
rwrist 17.5009
rhand -4.2425 -52.5028
rfingers 7.12502
rthumb 21.5211 -81.3272
lclavicle -4.78326e-016 -2.08724e-015
lhumerus -38.5887 1.1958 86.3126
lradius 34.732
lwrist -14.542
lhand -8.86705 -36.4704
lfingers 7.12502
lthumb 17.0744 -7.20075
rfemur -24.6053 18.7075 17.9909
rtibia 22.4708
rfoot -11.889 -33.6693
rtoes 21.5831
lfemur 13.7993 -12.7937 -31.174
ltibia 16.4707
lfoot -17.0408 18.7375
ltoes -23.5238
261
root 7.53039 15.2756 20.9774 -179.421 -1.38156 -181.281
lowerback 4.97982 -0.153582 -1.86779
upperback -4.1968 -0.45794 0.00625046
thorax -7.16933 -0.171568 1.1106
lowerneck -4.29578 -1.57736 -4.16772
upperneck 11.5748 -2.24831 1.12128
head 4.68568 -1.37882 0.992163
rclavicle -4.77083e-015 3.67752e-015
rhumerus -42.9907 3.33379 -88.41
rradius 32.0201
rwrist 17.5753
rhand -4.16666 -52.4684
rfingers 7.12502
rthumb 21.5939 -81.2845
lclavicle -4.77083e-015 3.67752e-015
lhumerus -39.0818 1.78996 86.1089
lradius 34.5127
lwrist -14.895
lhand -8.99678 -36.6446
lfingers 7.12502
lthumb 16.9495 -7.3642
rfemur -23.8665 18.2595 18.7846
rtibia 22.5767
rfoot -10.4516 -32.9365
rtoes 18.4628
lfemur 13.9069 -12.3589 -30.7501
ltibia 17.501
lfoot -16.9234 18.1879
ltoes -21.1518
